# xmcd CD database file
#
# Track frame offsets:
#	150
#	18782
#	40312
#	68080
#	96612
#	118424
#	150008
#
# Disc length: 2273 seconds
#
# Revision: 5
# Processed by: cddbd v1.5.2PL0 Copyright (c) Steve Scherf et al.
# Submitted via: CDex 1.51
#
DISCID=5208df07
DTITLE=Sister Sparrow and The Dirty Birds - Fowl Play -Disc1
DYEAR=2016
DGENRE=Rock
TTITLE0=Sparrow and The Dirty Birds - Freight Train
TTITLE1=Sparrow and The Dirty Birds - We Need a Love
TTITLE2=Sparrow and The Dirty Birds - Catch Me if You Can
TTITLE3=Sparrow and The Dirty Birds - Frankie
TTITLE4=Sparrow and The Dirty Birds - Don't Be Jealous
TTITLE5=Sparrow and The Dirty Birds - My House
TTITLE6=Sparrow and The Dirty Birds - Borderline
EXTD=YEAR: 2016
EXTT0=
EXTT1=
EXTT2=
EXTT3=
EXTT4=
EXTT5=
EXTT6=
PLAYORDER=
